<svg width="160" height="160" viewBox="0 0 160 160" fill="none" xmlns="http://www.w3.org/2000/svg">
<circle cx="80" cy="80" r="80" fill="#49A078"/>
<path d="M79.0273 92.168C79.0273 93.7383 78.8281 95.1562 78.4297 96.4219C78.0312 97.6641 77.5039 98.7656 76.8477 99.7266C76.1914 100.664 75.4297 101.473 74.5625 102.152C73.6953 102.809 72.7812 103.348 71.8203 103.77C70.8828 104.191 69.9219 104.508 68.9375 104.719C67.9766 104.906 67.0625 105 66.1953 105H41.4453V95.8594H66.125C67.3672 95.8594 68.3047 95.543 68.9375 94.9102C69.5703 94.2773 69.8867 93.3633 69.8867 92.168C69.7695 89.7305 68.5391 88.5117 66.1953 88.5117H52.0273C50.0117 88.5117 48.3008 88.1602 46.8945 87.457C45.4883 86.7539 44.3398 85.875 43.4492 84.8203C42.582 83.7656 41.9492 82.6289 41.5508 81.4102C41.1758 80.1914 40.9883 79.0547 40.9883 78C40.9883 75.9609 41.3516 74.25 42.0781 72.8672C42.8047 71.4609 43.7188 70.3242 44.8203 69.457C45.9219 68.5898 47.1172 67.9688 48.4062 67.5938C49.6953 67.1953 50.9023 66.9961 52.0273 66.9961H74.4922V76.1367H52.0977C51.6289 76.1367 51.2539 76.1953 50.9727 76.3125C50.7148 76.4062 50.5156 76.5469 50.375 76.7344C50.2578 76.8984 50.1875 77.0859 50.1641 77.2969C50.1406 77.4844 50.1289 77.6719 50.1289 77.8594C50.1523 78.2344 50.2227 78.5273 50.3398 78.7383C50.457 78.9492 50.5977 79.1016 50.7617 79.1953C50.9492 79.2891 51.1484 79.3477 51.3594 79.3711C51.5938 79.3711 51.8164 79.3711 52.0273 79.3711H66.1953C68.5391 79.3711 70.5312 79.793 72.1719 80.6367C73.8125 81.4805 75.1367 82.5469 76.1445 83.8359C77.1523 85.1016 77.8789 86.4844 78.3242 87.9844C78.793 89.4844 79.0273 90.8789 79.0273 92.168ZM119.387 76.1367H103.426V105H94.1797V76.1367H82.2969V66.9961H94.1797V54.5859H103.426V66.9961H119.387V76.1367Z" fill="white"/>
</svg>
